HIERARCHY
ROOT root
{
	OFFSET 0.000000 0.000000 0.000000
	CHANNELS 6 Xposition Yposition Zposition Zrotation Yrotation Xrotation
	JOINT lhip
	{
		OFFSET 0.058581 -0.082280 -0.017664
		CHANNELS 3 Zrotation Yrotation Xrotation
		JOINT lknee
		{
			OFFSET 0.043451 -0.386469 0.008037
			CHANNELS 3 Zrotation Yrotation Xrotation
			JOINT lankle
			{
				OFFSET -0.014790 -0.426874 -0.037428
				CHANNELS 3 Zrotation Yrotation Xrotation
				JOINT ltoe
				{
					OFFSET 0.041054 -0.060286 0.122042
					CHANNELS 3 Zrotation Yrotation Xrotation
					End Site
					{
						OFFSET 0.000000 0.000000 0.000000
					}
				}
			}
		}
	}
	JOINT rhip
	{
		OFFSET -0.060310 -0.090513 -0.013543
		CHANNELS 3 Zrotation Yrotation Xrotation
		JOINT rknee
		{
			OFFSET -0.043257 -0.383688 -0.004843
			CHANNELS 3 Zrotation Yrotation Xrotation
			JOINT rankle
			{
				OFFSET 0.019056 -0.420046 -0.034562
				CHANNELS 3 Zrotation Yrotation Xrotation
				JOINT rtoe
				{
					OFFSET -0.034840 -0.062106 0.130323
					CHANNELS 3 Zrotation Yrotation Xrotation
					End Site
					{
						OFFSET 0.000000 0.000000 0.000000
					}
				}
			}
		}
	}
	JOINT lowerback
	{
		OFFSET 0.004439 0.124404 -0.038385
		CHANNELS 3 Zrotation Yrotation Xrotation
		JOINT upperback
		{
			OFFSET 0.004488 0.137956 0.026820
			CHANNELS 3 Zrotation Yrotation Xrotation
			JOINT chest
			{
				OFFSET -0.002265 0.056032 0.002855
				CHANNELS 3 Zrotation Yrotation Xrotation
				JOINT lowerneck
				{
					OFFSET -0.013390 0.211636 -0.033468
					CHANNELS 3 Zrotation Yrotation Xrotation
					JOINT upperneck
					{
						OFFSET 0.010113 0.088937 0.050410
						CHANNELS 3 Zrotation Yrotation Xrotation
						End Site
						{
							OFFSET 0.000000 0.000000 0.000000
						}
					}
				}
				JOINT lclavicle
				{
					OFFSET 0.071702 0.114000 -0.018898
					CHANNELS 3 Zrotation Yrotation Xrotation
					JOINT lshoulder
					{
						OFFSET 0.122921 0.045205 -0.019046
						CHANNELS 3 Zrotation Yrotation Xrotation
						JOINT lelbow
						{
							OFFSET 0.255332 -0.015649 -0.022946
							CHANNELS 3 Zrotation Yrotation Xrotation
							JOINT lwrist
							{
								OFFSET 0.265709 0.012698 -0.007375
								CHANNELS 3 Zrotation Yrotation Xrotation
								End Site
								{
									OFFSET 0.000000 0.000000 0.000000
								}
							}
						}
					}
				}
				JOINT rclavicle
				{
					OFFSET -0.082954 0.112472 -0.023707
					CHANNELS 3 Zrotation Yrotation Xrotation
					JOINT rshoulder
					{
						OFFSET -0.113228 0.046853 -0.008472
						CHANNELS 3 Zrotation Yrotation Xrotation
						JOINT relbow
						{
							OFFSET -0.260127 -0.014369 -0.031269
							CHANNELS 3 Zrotation Yrotation Xrotation
							JOINT rwrist
							{
								OFFSET -0.269108 0.006794 -0.006027
								CHANNELS 3 Zrotation Yrotation Xrotation
								End Site
								{
									OFFSET 0.000000 0.000000 0.000000
								}
							}
						}
					}
				}
			}
		}
	}
}
MOTION
Frames: 8
Frame Time: 0.033333
-0.267652 0.676936 0.935003 179.352641 -2.064415 98.843792 7.145679 -2.971825 -53.301823 -7.833439 11.039430 30.633913 -7.473045 4.276091 18.245066 0.000000 -0.000000 0.000000 -1.923403 3.652311 -41.064006 -2.767192 -7.553966 75.053892 2.591299 -4.517902 -12.001659 0.000000 -0.000000 0.000000 -1.668529 0.199217 54.005649 -1.226701 -3.699064 -3.170376 1.121049 -1.375039 0.082423 -3.575991 0.480809 -12.170799 9.232118 7.325416 -12.079996 -33.517940 -10.550413 2.351777 -47.567473 0.335988 5.411733 20.910609 -36.733131 -19.887851 7.204962 -1.024032 -10.695337 24.442988 13.207332 3.403494 56.507443 -1.202674 10.472800 -23.401822 45.771696 -17.988391 3.259305 5.132923 -8.523543 
-0.263493 0.649243 0.934636 -179.626532 -2.391393 98.291665 6.784488 -2.198387 -53.514818 -9.125507 10.266301 33.589042 -7.782169 2.517143 10.599987 0.000000 -0.000000 0.000000 -1.625082 3.079529 -42.110749 -3.409158 -8.179302 74.736705 2.325108 -5.875945 -13.411304 0.000000 -0.000000 0.000000 -1.435279 -0.289971 54.091334 -1.106375 -3.879369 -3.727946 1.150818 -1.498778 0.767588 -3.400709 0.427271 -11.989225 9.079807 7.226875 -11.179105 -33.321788 -10.402854 2.304163 -47.773597 0.257614 4.940563 20.321392 -36.683021 -18.970608 7.189831 -1.363256 -10.513079 24.242102 12.562078 3.234488 56.582700 -1.424287 10.116861 -22.518759 45.640477 -16.823666 3.393199 5.170865 -8.156654 
-0.260191 0.623481 0.934102 -179.161040 -2.806507 97.916504 6.955782 -1.793961 -54.103512 -9.424198 11.398165 40.566145 -6.442473 1.680534 1.556191 0.000000 -0.000000 0.000000 -1.870557 2.970950 -43.603636 -3.572891 -8.380512 74.726125 2.962773 -6.385220 -13.607977 0.000000 -0.000000 0.000000 -1.410455 -0.385636 54.399357 -1.040193 -3.852075 -4.440300 1.152518 -1.561999 1.261698 -3.347059 0.259663 -12.220163 8.873502 7.137801 -10.946548 -33.124403 -10.276145 2.407100 -47.983333 0.033637 4.439758 19.698497 -36.508550 -18.196705 6.843035 -1.694746 -10.222329 24.256730 11.947847 3.194310 56.540347 -1.732373 9.845800 -22.321576 45.289817 -16.615799 3.615930 5.065222 -8.118663 
-0.257517 0.598894 0.934736 -178.999961 -2.928248 97.557439 7.681402 -1.586685 -54.363825 -8.417249 13.387843 49.358902 -4.888910 2.552512 -4.673670 0.000000 -0.000000 0.000000 -2.446093 3.343161 -45.035403 -3.200375 -8.602587 74.481325 3.987825 -5.939436 -12.723944 0.000000 -0.000000 0.000000 -1.384821 -0.493903 55.343734 -1.005290 -3.577550 -5.108542 1.139146 -1.526597 1.266913 -3.385196 -0.089636 -12.605926 8.783665 7.279819 -11.387552 -33.279652 -10.289080 2.672107 -47.809143 -0.155364 4.074538 19.389293 -36.457620 -17.904938 6.367210 -1.838312 -10.130638 24.460567 11.859882 3.338434 56.139504 -1.906889 9.707341 -22.293433 44.610624 -16.708275 3.534256 4.869962 -8.373926 
-0.255564 0.575217 0.935269 -178.868819 -2.964456 97.218414 8.436752 -1.509895 -54.200274 -6.317653 15.185157 59.082852 -3.566872 4.656796 -7.509870 0.000000 -0.000000 0.000000 -2.877385 3.162515 -46.201186 -2.619298 -8.768294 73.903480 4.418636 -5.432492 -11.927196 0.000000 -0.000000 0.000000 -1.352287 -0.585918 56.206951 -0.980151 -3.368261 -5.504036 1.166439 -1.537248 1.168766 -3.354504 -0.480150 -12.826888 8.864141 7.670452 -11.715154 -33.398849 -10.477894 3.053393 -47.631399 -0.289521 3.744101 19.199537 -36.449431 -17.685138 6.461218 -1.799815 -10.340905 24.626072 12.189701 3.590020 55.579102 -1.770717 9.443870 -21.943264 43.705427 -16.391763 3.486004 4.618796 -8.282580 
-0.254389 0.551718 0.934896 -178.757032 -2.995522 97.283342 9.126671 -1.644607 -53.610491 -4.338616 15.897826 68.255389 -2.799973 6.013833 -8.330654 0.000000 -0.000000 0.000000 -3.238097 2.512771 -47.711575 -2.306727 -9.219691 73.287313 4.347820 -5.047205 -11.139302 0.000000 -0.000000 0.000000 -1.269463 -0.659967 56.301251 -0.967949 -3.125374 -5.592586 1.154775 -1.632240 1.215567 -3.260959 -0.681367 -12.833721 8.894758 7.846056 -11.785630 -33.231245 -10.611131 3.416320 -47.736611 -0.606291 3.586097 19.101962 -36.504602 -17.282093 6.747973 -1.782614 -10.498178 24.681777 12.440575 3.829050 55.127769 -1.313078 9.089715 -21.579560 42.871775 -16.037979 3.439635 4.423898 -8.462317 
-0.253844 0.528267 0.934255 -178.774898 -2.733321 97.594481 9.735935 -1.616409 -52.070349 -3.495664 15.439106 75.615913 -2.785560 6.037200 -7.576080 0.000000 -0.000000 0.000000 -3.612936 2.343343 -49.420758 -1.935413 -9.773668 72.524544 4.363683 -4.278710 -10.054376 0.000000 -0.000000 0.000000 -1.073691 -0.931854 56.081962 -0.984624 -2.564478 -5.503491 1.091284 -1.633523 1.214835 -3.300585 -0.645136 -12.727681 8.684350 7.756792 -11.758052 -33.019216 -10.556586 3.530689 -47.969316 -1.029880 3.596254 19.148259 -36.632628 -17.107911 6.673254 -1.817742 -10.530855 24.743418 12.500071 4.031625 54.744232 -0.933126 8.728125 -21.732465 42.654882 -16.192891 3.429491 4.297971 -8.928926 
-0.253809 0.505437 0.933824 -178.746047 -2.182025 97.749489 10.163819 -1.476525 -49.180675 -3.709822 14.298923 80.715750 -3.761017 5.550580 -6.007980 0.000000 -0.000000 0.000000 -3.837280 2.556312 -50.608882 -1.455565 -10.201246 71.402647 4.598470 -3.242328 -9.250219 0.000000 -0.000000 0.000000 -0.787214 -1.486164 55.985637 -0.978049 -1.927973 -5.164866 1.018614 -1.582370 1.052094 -3.330464 -0.298551 -12.618986 8.332189 7.650216 -11.778694 -33.049737 -10.451878 3.507584 -47.996364 -1.228712 3.663711 19.389335 -36.893076 -17.282507 6.416278 -1.952021 -10.607928 25.057058 12.652913 4.206544 54.155765 -0.661655 8.460507 -22.051580 42.844175 -16.480068 3.189046 4.299048 -9.275790 
